HIERARCHY
ROOT Hips
{
  OFFSET 13.6774 106.653 -34.4427
  CHANNELS 6 Xposition Yposition Zposition Zrotation Xrotation Yrotation
  JOINT ToSpine
  {
    OFFSET -2.69724 7.43032 -0.144315
    CHANNELS 3 Zrotation Xrotation Yrotation
    JOINT Spine
    {
      OFFSET -0.0310711 10.7595 1.96963
      CHANNELS 3 Zrotation Xrotation Yrotation
      JOINT Spine1
      {
        OFFSET 19.9056 3.91189 0.764692
        CHANNELS 3 Zrotation Xrotation Yrotation
        JOINT Neck
        {
          OFFSET 25.9749 7.03908 -0.130764
          CHANNELS 3 Zrotation Xrotation Yrotation
          JOINT Head
          {
            OFFSET 9.52751 0.295786 -0.907742
            CHANNELS 3 Zrotation Xrotation Yrotation
            End Site
            {
              OFFSET 16.4037 0.713936 2.7358
            }
          }
        }
        JOINT LeftShoulder
        {
          OFFSET 17.7449 4.33886 11.7777
          CHANNELS 3 Zrotation Xrotation Yrotation
          JOINT LeftArm
          {
            OFFSET 0.911315 1.27913 9.80584
            CHANNELS 3 Zrotation Xrotation Yrotation
            JOINT LeftForeArm
            {
              OFFSET 28.6126 1.18197 -3.53199
              CHANNELS 3 Zrotation Xrotation Yrotation
              JOINT LeftHand
              {
                OFFSET 27.5088 0.0218783 0.327423
                CHANNELS 3 Zrotation Xrotation Yrotation
                End Site
                {
                  OFFSET 18.6038 -0.000155887 0.382096
                }
              }
            }
          }
        }
        JOINT RightShoulder
        {
          OFFSET 17.1009 2.89543 -12.2328
          CHANNELS 3 Zrotation Xrotation Yrotation
          JOINT RightArm
          {
            OFFSET 1.4228 0.178766 -10.211
            CHANNELS 3 Zrotation Xrotation Yrotation
            JOINT RightForeArm
            {
              OFFSET 28.733 1.87905 2.64907
              CHANNELS 3 Zrotation Xrotation Yrotation
              JOINT RightHand
              {
                OFFSET 27.4588 0.290562 -0.101845
                CHANNELS 3 Zrotation Xrotation Yrotation
                End Site
                {
                  OFFSET 17.8396 -0.255518 -0.000602873
                }
              }
            }
          }
        }
      }
    }
  }
  JOINT LeftUpLeg
  {
    OFFSET -5.61296 -2.22332 -10.2353
    CHANNELS 3 Zrotation Xrotation Yrotation
    JOINT LeftLeg
    {
      OFFSET 2.56703 -44.7417 -7.93097
      CHANNELS 3 Zrotation Xrotation Yrotation
      JOINT LeftFoot
      {
        OFFSET 3.16933 -46.5642 -3.96578
        CHANNELS 3 Zrotation Xrotation Yrotation
        JOINT LeftToeBase
        {
          OFFSET 0.346054 -6.02161 12.8035
          CHANNELS 3 Zrotation Xrotation Yrotation
          End Site
          {
            OFFSET 0.134235 -1.35082 5.13018
          }
        }
      }
    }
  }
  JOINT RightUpLeg
  {
    OFFSET -5.7928 -1.72406 10.6446
    CHANNELS 3 Zrotation Xrotation Yrotation
    JOINT RightLeg
    {
      OFFSET -2.57161 -44.7178 -7.85259
      CHANNELS 3 Zrotation Xrotation Yrotation
      JOINT RightFoot
      {
        OFFSET -3.10148 -46.5936 -4.03391
        CHANNELS 3 Zrotation Xrotation Yrotation
        JOINT RightToeBase
        {
          OFFSET -0.0828122 -6.13587 12.8035
          CHANNELS 3 Zrotation Xrotation Yrotation
          End Site
          {
            OFFSET -0.131328 -1.35082 5.13018
          }
        }
      }
    }
  }
}
MOTION
Frames: 8
Frame Time: 0.03333333333333333
0.0000 93.1000 0.0000 -56.6589 -52.2461 -150.7922 -71.1027 -2.3829 88.0724 104.6980 72.1421 -14.2511 0.6453 21.0889 4.3396 -134.9337 19.9804 -177.4436 -140.1400 56.9996 -175.9145 -1.2967 -16.0311 -26.9352 -80.0408 15.8839 -114.0640 6.0784 9.2381 -40.7029 0.2322 0.0193 -0.3202 -4.6825 8.1278 36.6412 -50.1396 -34.8462 119.3232 -6.6315 -0.9828 101.7090 -1.0031 0.4012 -1.4524 -27.6952 13.8966 108.7873 -2.7966 56.4178 8.0397 -0.5219 -17.6350 -0.8779 -1.9283 -0.6997 11.2437 -49.4772 -18.7233 85.8701 1.0105 55.4438 -12.6295 -4.4314 -0.0653 -1.9207 0.6150 -23.4437 -7.2839 
0.0000 93.1000 0.0000 -50.6725 -59.8502 -143.6131 -71.0952 -0.6381 88.2037 103.8659 73.2498 -14.3155 1.2571 22.0238 6.0856 -133.4683 21.4641 181.5951 -144.2200 58.4842 -173.4757 -0.2930 -16.1845 -27.9565 -80.6661 19.2319 -121.2491 4.6994 4.8298 -47.8206 0.2250 0.3457 0.3177 -3.0104 8.2945 37.0239 -57.3476 -36.2408 119.6568 -5.7667 -1.2892 97.7673 -0.2062 0.0477 -0.2135 -29.3393 8.8750 103.8046 -2.9439 54.8837 5.8022 1.1894 -16.7546 -2.3273 -2.7583 -2.5128 13.7322 -48.2196 -15.2329 86.9492 2.9956 64.5124 -10.8188 -7.7737 3.7182 -0.1504 2.2867 -14.8493 -23.3960 
0.0000 93.1000 0.0000 -43.8614 -65.0392 -136.1356 -71.1120 0.3295 88.1815 104.7719 73.7885 -17.0877 1.1907 23.4019 6.4375 -130.3480 22.4701 176.9911 -148.2567 60.8768 -171.2800 0.5524 -16.5567 -27.7096 -80.6433 23.0722 -128.1034 5.0208 3.9711 -57.2112 0.3417 -0.1948 0.0367 -2.8023 8.5674 36.9226 -64.2401 -34.8189 119.0780 -3.1188 -0.9426 92.5552 -0.0060 0.6775 -0.5297 -31.0427 5.9623 103.0001 -3.7871 54.0789 2.9220 1.1299 -18.5468 -2.1820 -3.8228 -1.1639 12.1220 -44.9174 -13.1251 86.8332 6.7209 71.3135 -10.0641 -12.1518 1.3708 1.2874 2.2787 -21.1333 -14.9134 
0.0000 93.1000 0.0000 -30.6222 -70.2748 -122.4700 -71.2332 0.6198 88.1983 109.0554 73.7024 -21.7223 0.1636 24.1187 5.6893 -128.8832 22.9828 175.4684 -152.3551 62.5340 -167.6011 0.6098 -17.1166 -26.9900 -78.4558 25.6492 -133.2625 7.1430 2.8769 -65.6672 -0.1114 -0.1506 0.3064 -2.7017 8.9781 36.1477 -71.2645 -33.3154 117.8970 -3.0641 -0.5901 87.9686 0.1199 0.6640 -0.3863 -33.9429 3.8375 101.9364 -4.3574 51.2530 -1.6516 1.1459 -18.3462 -2.1961 -3.0140 -0.5835 10.8665 -42.1872 -11.5640 84.3297 9.5317 72.1121 -5.9275 -7.8973 -3.3579 1.1739 2.0173 -21.8279 -17.6553 
0.0000 93.1000 0.0000 -8.0466 -73.0960 -98.8086 -71.2741 0.2890 88.0322 112.0925 73.4836 -24.9737 -1.9263 24.4060 5.1356 -127.0799 24.0521 172.5606 -153.9579 64.0531 -164.0422 0.3453 -16.0639 -25.9631 -75.6587 28.2149 -137.0040 9.4490 2.3054 -74.5196 -0.0552 0.1069 -0.1286 -2.9241 9.1970 37.1025 -78.6688 -30.8428 116.3147 -2.7973 0.6896 83.7173 0.1569 0.3205 -0.3101 -34.8384 1.9570 99.9913 -4.4838 50.1271 -5.1229 2.3559 -16.7718 -2.3375 -1.4700 -2.0239 10.2663 -38.1042 -12.2660 79.6334 8.1650 70.3803 -6.8648 -8.5406 -7.1131 1.3254 1.4996 -22.2808 -13.2967 
0.0000 93.1000 0.0000 15.8628 -72.4113 -73.4772 -71.2695 -0.3079 88.0762 116.8804 73.0669 -27.6904 -3.1635 24.1377 4.5617 -125.1941 24.2634 171.2860 -158.1798 65.0986 -159.7563 0.1227 -15.1258 -23.5112 -74.0054 30.7472 -140.9527 12.9847 1.2510 -82.6431 -0.3306 0.1118 0.3216 -3.6006 9.5962 38.7424 -86.2897 -26.4588 114.2765 0.2517 -1.0341 79.6533 -0.2507 0.3549 -0.3793 -36.2985 -0.5959 96.7721 -4.2285 49.2238 -7.5324 3.2763 -16.5365 -1.8196 -0.7878 -3.3542 11.3215 -35.0471 -13.0321 77.2424 4.1631 65.4192 -4.0817 -7.5579 -10.7357 0.6234 1.6499 -19.2377 -18.8131 
0.0000 93.1000 0.0000 34.5920 -68.8822 -52.6614 -71.3059 -0.7430 88.2110 115.8881 73.4305 -28.8990 -3.7282 24.1161 5.2230 -125.2136 25.6872 169.1432 -162.1866 66.8914 -157.9838 -0.3719 -15.7765 -24.6163 -74.4747 30.2870 -141.0360 15.2213 -0.0780 -88.6440 -0.3560 0.5194 0.6318 -3.6784 9.8637 36.7065 -93.8356 -24.4748 112.2216 3.7166 -1.7981 74.7281 -0.1461 -0.0501 -0.0156 -36.7541 -1.3376 93.9851 -5.6893 49.9787 -10.1746 3.9241 -16.3944 -1.9173 -0.3296 -5.9827 12.5959 -31.8499 -13.2219 77.0091 2.9543 57.3618 -3.3149 -7.9583 -8.9768 0.3526 2.2516 -18.4290 -19.2222 
0.0000 93.1000 0.0000 46.0441 -64.7964 -39.8570 -71.2410 -0.2099 88.2148 119.0715 73.8085 -31.8644 -3.9202 24.9249 5.0834 -124.2845 26.2488 166.3056 -163.4544 68.4611 -157.1888 0.0040 -15.9780 -24.2042 -74.0635 30.7213 -142.8801 15.5656 -0.6984 -91.6101 -0.2986 0.2722 0.5149 -3.4176 9.9468 36.2642 -100.7814 -19.4272 110.4538 4.9587 -2.0304 70.8893 -0.0226 0.2149 0.0775 -36.7347 -1.8212 93.2083 -4.6798 51.0307 -12.0164 4.6570 -17.0826 -2.1149 -0.3778 -5.5002 13.2440 -30.9232 -13.1812 77.6845 1.7318 47.1137 -1.1215 -5.5757 -3.3698 0.0848 1.8825 -11.5451 -17.0655 
